<svg id="Group_8" data-name="Group 8" xmlns="http://www.w3.org/2000/svg" xmlns:xlink="http://www.w3.org/1999/xlink" width="100%" viewBox="0 0 394.907 393">
  <defs>
    <linearGradient id="linear-gradient" y1="0.5" x2="1" y2="0.5" gradientUnits="objectBoundingBox">
      <stop offset="0" stop-color="#fff"/>
      <stop offset="1" stop-color="#fff" stop-opacity="0.302"/>
    </linearGradient>
  </defs>
  <path id="Path_341" data-name="Path 341" d="M617.906,272.273A197.268,197.268,0,0,1,449.474,467.605h-53.48c-.084.073-3.048.215-3.048.215-.5-.068-1-.141-1.5-.215q-5.711-.841-11.318-2.006a195.174,195.174,0,0,1-42.439-14.01c-.141-.063-.278-.131-.419-.194a194.324,194.324,0,0,1-21.929-11.947c-.178-.11-.351-.22-.524-.33-.3-.189-.592-.372-.885-.566-.094-.058-.189-.115-.283-.178a196.981,196.981,0,0,1-18.158-13.219c-.283-.225-.566-.461-.848-.691q-1.7-1.414-3.378-2.86c-.01-.005-.016-.016-.026-.021a199.355,199.355,0,0,1-16.22-15.754c-.016-.021-.037-.037-.052-.058A197.054,197.054,0,0,1,228.7,319.563c-.063-.23-.115-.456-.173-.686a198.051,198.051,0,0,1-5.531-46.6C223,163.224,311.4,74.82,420.453,74.82S617.906,163.224,617.906,272.273Z" transform="translate(-223 -74.82)" fill="#673ab7"/>
  <path id="Path_342" data-name="Path 342" d="M633.938,459.213,651.206,439l17.268-20.216,9.748-11.412c.539-.631-.293-1.616-.832-.985L660.122,426.6l-17.268,20.216-9.748,11.412c-.539.631.293,1.616.832.985Z" transform="translate(-418.23 -232.631)" opacity="0.8" fill="url(#linear-gradient)"/>
  <rect id="Rectangle_819" data-name="Rectangle 819" width="17.86" height="216.591" transform="translate(202.591 176.194)" fill="#2f2e41"/>
  <path id="Path_343" data-name="Path 343" d="M408.216,488.225l-.037,6.484-.435,78.7-.052,9.38-.115,21.138-.115,21.374H406.31l.115-21.374.11-19.745.058-10.967.435-78.489.037-6.5Z" transform="translate(-193.506 -232.515)" fill="#6c63ff"/>
  <path id="Path_344" data-name="Path 344" d="M627.958,402.06h-24.2a18.857,18.857,0,0,1,2.773-11.457l.684-4.676h16.709l.788,4.616C627.054,393.663,627.961,397.6,627.958,402.06Z" transform="translate(-404.301 -222.985)" fill="#2f2e41"/>
  <path id="Path_345" data-name="Path 345" d="M626.591,373.929H609.348a1.152,1.152,0,0,1-1.12-1.421l2.9-12.1a1.152,1.152,0,0,1,1.121-.883h11.435a1.152,1.152,0,0,1,1.121.883l2.9,12.1a1.152,1.152,0,0,1-1.12,1.421Z" transform="translate(-406.45 -210.411)" fill="#2f2e41"/>
  <path id="Path_346" data-name="Path 346" d="M621.359,347.97a6.056,6.056,0,0,0-6.049,6.055v6.049h12.1v-6.049A6.056,6.056,0,0,0,621.359,347.97Z" transform="translate(-409.838 -204.908)" fill="#2f2e41"/>
  <path id="Path_347" data-name="Path 347" d="M353.767,622.109l-41,53.215,5.671,1.309,31.842-41h3.49Z" transform="translate(-148.955 -296.28)" fill="#2f2e41"/>
  <path id="Path_348" data-name="Path 348" d="M419.831,622.109l41,53.215-5.671,1.309-31.842-41h-3.49Z" transform="translate(-199.945 -296.28)" fill="#2f2e41"/>
  <path id="Path_349" data-name="Path 349" d="M833.113,320.07V525.589a198.356,198.356,0,0,1-43.183,34.086V320.07Z" transform="translate(-493.001 -191.621)" fill="#2f2e41"/>
  <rect id="Rectangle_820" data-name="Rectangle 820" width="28.353" height="28.353" transform="translate(332.259 154.623)" fill="#2f2e41"/>
  <rect id="Rectangle_821" data-name="Rectangle 821" width="6.543" height="74.153" transform="translate(315.247 59.969)" fill="#2f2e41"/>
  <g id="Group_7" data-name="Group 7" transform="translate(296.929 59.969)" opacity="0.4">
    <path id="Path_350" data-name="Path 350" d="M793.6,320.07H789.93v239.6q1.847-1.08,3.666-2.2Z" transform="translate(-789.93 -251.59)" fill="#e6e6e6"/>
    <rect id="Rectangle_822" data-name="Rectangle 822" width="3.666" height="68.48" transform="translate(18.319)" fill="#e6e6e6"/>
  </g>
  <rect id="Rectangle_823" data-name="Rectangle 823" width="23.554" height="13.086" transform="translate(305.433 162.256)" fill="#d9435f"/>
  <circle id="Ellipse_69" data-name="Ellipse 69" cx="34.668" cy="34.668" r="34.668" transform="translate(42.288 93.57)" fill="#e6e6e6"/>
  <circle id="Ellipse_70" data-name="Ellipse 70" cx="3.978" cy="3.978" r="3.978" transform="translate(69.568 100.39)" fill="#cbcbcb"/>
  <circle id="Ellipse_71" data-name="Ellipse 71" cx="3.978" cy="3.978" r="3.978" transform="translate(76.388 140.173)" fill="#cbcbcb"/>
  <circle id="Ellipse_72" data-name="Ellipse 72" cx="2.842" cy="2.842" r="2.842" transform="translate(92.869 119.145)" fill="#cbcbcb"/>
  <circle id="Ellipse_73" data-name="Ellipse 73" cx="9.093" cy="9.093" r="9.093" transform="translate(54.223 121.986)" fill="#cbcbcb"/>
  <circle id="Ellipse_74" data-name="Ellipse 74" cx="1.873" cy="1.873" r="1.873" transform="translate(130.119 181.027)" fill="#6c63ff"/>
  <path id="Path_351" data-name="Path 351" d="M280.745,401.087l-.935.929-.929-.935-.623.619.929.935-.935.929.619.623.935-.929.929.935.623-.619-.929-.935.935-.929Z" transform="translate(-132.518 -191.015)" fill="#e6e6e6"/>
  <path id="Path_352" data-name="Path 352" d="M295.051,297.369l-.935.929-.929-.935-.623.619.929.935-.935.929.619.623.935-.929.929.935.623-.619-.929-.935.935-.929Z" transform="translate(-139.331 -141.62)" fill="#e6e6e6"/>
  <path id="Path_353" data-name="Path 353" d="M562.656,172.219c-2.023,1.348-4.093-1.86-2.031-3.148C562.647,167.724,564.718,170.931,562.656,172.219Z" transform="translate(-383.388 -119.553)" fill="#e6e6e6"/>
  <path id="Path_354" data-name="Path 354" d="M115.265,365.13l-1.287-.282.282-1.287-.858-.188-.282,1.287-1.287-.282-.188.858,1.287.282-.282,1.287.858.188.282-1.287,1.287.282Z" transform="translate(-53.171 -173.056)" fill="#e6e6e6"/>
  <path id="Path_355" data-name="Path 355" d="M491.265,70.13l-1.287-.282.282-1.287-.858-.188-.282,1.287-1.287-.282-.188.858,1.287.282L488.65,71.8l.858.188.282-1.287,1.287.282Z" transform="translate(-232.242 -32.562)" fill="#e6e6e6"/>
  <path id="Path_356" data-name="Path 356" d="M683.265,229.13l-1.287-.282.282-1.287-.858-.188-.282,1.287-1.287-.282-.188.858,1.287.282-.282,1.287.858.188.282-1.287,1.287.282Z" transform="translate(-323.682 -108.286)" fill="#e6e6e6"/>
  <path id="Path_357" data-name="Path 357" d="M219.168,108.908l-1.287-.282.282-1.287-.858-.188-.282,1.287-1.287-.282-.188.858,1.287.282-.282,1.287.858.187.282-1.287,1.287.282Z" transform="translate(-102.655 -51.031)" fill="#e6e6e6"/>
  <circle id="Ellipse_75" data-name="Ellipse 75" cx="1.873" cy="1.873" r="1.873" transform="translate(236.61 96.88)" fill="#6c63ff"/>
  <path id="Path_358" data-name="Path 358" d="M425.265,241.13l-1.287-.282.282-1.287-.858-.188-.282,1.287-1.287-.282-.188.858,1.287.282-.282,1.287.858.188.282-1.287,1.287.282Z" transform="translate(-200.809 -114.001)" fill="#e6e6e6"/>
  <path id="Path_359" data-name="Path 359" d="M520.168,196.908l-1.287-.282.282-1.287-.858-.188-.282,1.287-1.287-.282-.188.858,1.287.282-.282,1.287.858.188.282-1.287,1.287.282Z" transform="translate(-246.006 -92.941)" fill="#e6e6e6"/>
  <path id="Path_360" data-name="Path 360" d="M579.937,245.213,597.206,225l17.268-20.216,9.748-11.412c.539-.631-.293-1.617-.832-.985L606.122,212.6l-17.268,20.216-9.748,11.412c-.539.631.293,1.616.832.985Z" transform="translate(-392.513 -130.713)" opacity="0.8" fill="url(#linear-gradient)"/>
  <rect id="Rectangle_824" data-name="Rectangle 824" width="3.142" height="53.434" transform="translate(201.902 338.849)" fill="#e6e6e6"/>
  <path id="Path_361" data-name="Path 361" d="M581.824,347.225a6.061,6.061,0,0,0-4.478,5.84v.052a1.158,1.158,0,0,0-.791.827l-2.9,12.1a1.144,1.144,0,0,0,1.053,1.409l-.021.141-.078.524-1.184,3.666c-2.247,3.844-2.441,7.442-2.09,11.234h3.132V529.94L533.592,583l3.006.691-.477.618L530.45,583l40.873-53.056V383.023l-2.613-.236a17.384,17.384,0,0,1,2.619-11l.136-3.666.079-.524.021-.141a1.144,1.144,0,0,1-1.053-1.409l2.9-12.1a1.158,1.158,0,0,1,.791-.827v-.052a6.056,6.056,0,0,1,6.049-6.055,5.988,5.988,0,0,1,1.571.215Z" transform="translate(-369.424 -204.451)" fill="#e6e6e6"/>
  <path id="Path_362" data-name="Path 362" d="M428.518,646.969h-2.924v.281l31.624,40.721,2.665-.615Z" transform="translate(-202.69 -308.12)" fill="#e6e6e6"/>
  <path id="Path_363" data-name="Path 363" d="M635.548,783.96v9.873a196.147,196.147,0,0,1-43.194,11.5H527.933c-1.65-.3-3.294-.618-4.923-.958V783.96Z" transform="translate(-365.88 -412.549)" fill="#2f2e41"/>
  <path id="Path_364" data-name="Path 364" d="M442.269,612.009c-.367-.063-.754-.126-1.152-.194-2.341-.377-5.164-.807-8.4-1.252l-.676-.094c-2.671-.361-5.609-.728-8.778-1.089-17.373-1.954-41.638-3.52-66.4-1.367.613-2.462,1.178-4.923,1.713-7.374l-23.715,3.672,25.59-13.015a362.781,362.781,0,0,0,4.965-40.423l-12.811,1.98,13.1-6.662c.938-16.776.5-27.942.5-27.942s-42.848,22.275-77.112,56.319c-1.257-4.431-2.634-8.8-4.1-13.1l-18.4,15.4L281.755,552.5a360.967,360.967,0,0,0-16.645-37.17l-9.941,8.317,7.772-12.476c-7.867-14.848-14.016-24.182-14.016-24.182s-7.013,11.491-15.367,29.23a197.088,197.088,0,0,0,46.488,86.953,199.086,199.086,0,0,0,16.247,15.775q1.673,1.446,3.378,2.86a197.712,197.712,0,0,0,19.007,13.911c.388.251.775.5,1.168.744a196.465,196.465,0,0,0,65.312,26.481c1.629.34,3.273.66,4.923.958.4.073.807.147,1.21.215h6.683s2.964-.141,3.048-.215c8.3-7.264,15.828-14.607,22.317-21.374,1.477-1.535,2.9-3.043,4.263-4.509l-11.2-6.531,14.372,3.08c.66-.728,1.309-1.446,1.938-2.147,3.226-3.6,6.023-6.866,8.343-9.637.4-.482.786-.943,1.157-1.393,4.227-5.1,6.552-8.212,6.552-8.212S446.432,612.7,442.269,612.009Z" transform="translate(-228.029 -271.117)" fill="#2f2e41"/>
  <path id="Path_365" data-name="Path 365" d="M605.574,401.744h-3.132a18.864,18.864,0,0,1,2.771-11.454l.5-3.446.078-.524h3.143l-.079.524-.5,3.446a18.864,18.864,0,0,0-2.771,11.454h3.132" transform="translate(-403.674 -223.172)" fill="#6c63ff"/>
  <rect id="Rectangle_825" data-name="Rectangle 825" width="3.142" height="38.234" transform="translate(201.9 223.903)" fill="#6c63ff"/>
  <circle id="Ellipse_76" data-name="Ellipse 76" cx="5.761" cy="5.761" r="5.761" transform="translate(311.892 54.208)" fill="#72f2f2"/>
</svg>
