<svg xmlns="http://www.w3.org/2000/svg" width="100%"  viewBox="0 0 627.005 506.085">
  <g id="Group_1" data-name="Group 1" transform="translate(-0.002 -0.661)">
    <path id="Path_222" data-name="Path 222" d="M705.335,376.93c-13.234,7.937-36.812,17.882-60.907,7.661l-15.575-6.607L660.065,343a149.064,149.064,0,1,1,45.271,33.933Zm-59.8-134.311a123.874,123.874,0,0,0,39.44,91.139l8.609,8.09-19.64,22.016c10.23-2.076,19.141-7.61,23.659-10.824l6.2-4.411,6.668,3.664a125.064,125.064,0,1,0-64.935-109.674Z" transform="translate(-292.549 -93.127)" fill="#72f2f2"/>
    <path id="Path_223" data-name="Path 223" d="M638.315,247.386a137.122,137.122,0,1,1,71.22,120.3c-9.482,6.747-32.615,20.2-55.467,10.51l27.508-30.836a136.786,136.786,0,0,1-43.261-99.975Z" transform="translate(-297.454 -97.895)" fill="#5e66f2"/>
    <path id="Path_224" data-name="Path 224" d="M940.806,247.8A137.182,137.182,0,0,0,815.755,111.168c4-.35,8.038-.539,12.124-.539a137.176,137.176,0,0,1,0,274.351c-4.08,0-8.115-.192-12.1-.541A137.183,137.183,0,0,0,940.806,247.8Z" transform="translate(-348.963 -98.016)" opacity="0.1"/>
    <path id="Path_225" data-name="Path 225" d="M325.031,638.983a149.458,149.458,0,1,1,110.52-48.922l31.212,34.988-15.575,6.607c-24.095,10.22-47.673.275-60.907-7.661A149.648,149.648,0,0,1,325.031,638.983Zm0-274.35a125.051,125.051,0,1,0,60.128,234.719l6.657-3.658,6.2,4.411c4.518,3.214,13.429,8.749,23.659,10.824l-19.64-22.016,8.609-8.09a123.873,123.873,0,0,0,39.44-91.14A125.193,125.193,0,0,0,325.031,364.633Z" transform="translate(-163.101 -164.615)" fill="#424242"/>
    <path id="Path_226" data-name="Path 226" d="M467.266,494.777a137.121,137.121,0,1,0-71.22,120.3c9.482,6.747,32.615,20.2,55.467,10.51L424,594.753A136.786,136.786,0,0,0,467.266,494.777Z" transform="translate(-168.16 -169.709)" fill="#5e66f2"/>
    <path id="Path_227" data-name="Path 227" d="M217.163,493.8A137.182,137.182,0,0,1,342.214,357.165c-4-.35-8.038-.539-12.124-.539a137.175,137.175,0,1,0,0,274.35c4.08,0,8.115-.192,12.1-.541A137.181,137.181,0,0,1,217.163,493.8Z" transform="translate(-168.16 -169.426)" opacity="0.1"/>
    <path id="Path_228" data-name="Path 228" d="M848.646,235.573c-8.975-15.165-26.732-15.872-26.732-15.872s-17.3-2.213-28.4,20.884c-10.346,21.528-24.624,42.314-2.3,47.354l4.033-12.551,2.5,13.486a87.357,87.357,0,0,0,9.552.163c23.909-.772,46.678.226,45.945-8.354C852.266,269.277,857.281,250.164,848.646,235.573Z" transform="translate(-338.406 -129.661)" fill="#2f2e41"/>
    <path id="Path_229" data-name="Path 229" d="M792.769,425.96a35.4,35.4,0,0,1-1.145,4.929c-.562,1.579-1.429,3.04-1.942,4.635-1.637,5.086.632,10.757,4.257,14.682a23.958,23.958,0,0,0,11.681,6.936,47.66,47.66,0,0,0,10.039,1.055c9.33.316,18.9.6,27.741-2.4a48.206,48.206,0,0,0,8.06-3.661,6.035,6.035,0,0,0,2.091-1.647,5.755,5.755,0,0,0,.755-3.378c-.02-3.955-.822-7.89-.631-11.841a46.941,46.941,0,0,0,.313-6.557,12.1,12.1,0,0,0-9.244-10.419,25.107,25.107,0,0,0-7.663,0,195.374,195.374,0,0,1-19.942.892c-6.8-.043-13.564-1.082-20.333-1.19-2-.032-1.961.585-2.6,2.522A47.185,47.185,0,0,0,792.769,425.96Z" transform="translate(-341.237 -187.24)" fill="#2f2e41"/>
    <path id="Path_230" data-name="Path 230" d="M818.13,288.271a11.876,11.876,0,0,1-1.709,4.893c-1.184,1.618-3.113,2.543-4.387,4.092-1.917,2.331-2.026,5.612-2.034,8.63-.007,2.78.049,5.746,1.6,8.054a14.075,14.075,0,0,0,4.034,3.556c5.814,3.918,12.1,7.907,19.108,8.036,2.9.054,6.019-.7,7.93-2.885a11.906,11.906,0,0,0,1.92-3.426,45.488,45.488,0,0,0,3.22-13.848,16.261,16.261,0,0,0-.613-6.652c-.852-2.374-2.574-4.328-3.712-6.579a14.646,14.646,0,0,1-1.41-8.667.936.936,0,0,0-.049-.628.915.915,0,0,0-.754-.306l-13.9-1a30.256,30.256,0,0,1-3.859-.441c-.749-.152-2.729-1.217-3.443-.934C818.749,280.69,818.4,286.851,818.13,288.271Z" transform="translate(-347.292 -147.217)" fill="#a0616a"/>
    <path id="Path_231" data-name="Path 231" d="M818.13,288.882a11.876,11.876,0,0,1-1.709,4.893c-1.184,1.618-3.113,2.543-4.387,4.092-1.917,2.331-2.026,5.612-2.034,8.63-.007,2.78.049,5.746,1.6,8.054a14.075,14.075,0,0,0,4.034,3.556c5.814,3.918,12.1,7.907,19.108,8.036,2.9.054,6.019-.7,7.93-2.885a11.908,11.908,0,0,0,1.92-3.426,45.49,45.49,0,0,0,3.22-13.848,16.261,16.261,0,0,0-.613-6.652c-.852-2.374-2.574-4.328-3.712-6.579a14.647,14.647,0,0,1-1.41-8.668.936.936,0,0,0-.049-.628.914.914,0,0,0-.754-.306l-13.9-1a30.246,30.246,0,0,1-3.859-.442c-.749-.152-2.729-1.217-3.443-.934C818.749,281.3,818.4,287.463,818.13,288.882Z" transform="translate(-347.292 -147.394)" opacity="0.1"/>
    <circle id="Ellipse_18" data-name="Ellipse 18" cx="20.394" cy="20.394" r="20.394" transform="translate(463.738 102.131)" fill="#a0616a"/>
    <path id="Path_232" data-name="Path 232" d="M822.472,324.287a12.51,12.51,0,0,0,3.582,2.862,11.255,11.255,0,0,0,4.475.852c3.676.1,7.661-.57,10.219-3.213,3.3-3.407,3.188-8.9,5.772-12.876a2.868,2.868,0,0,1,.833-.911,2.7,2.7,0,0,1,1.416-.326c3.263-.031,6.106,2.086,8.672,4.1a11.423,11.423,0,0,1,3.052,3.109,10.539,10.539,0,0,1,1.029,3.152,138.467,138.467,0,0,1,2.095,18.9c.226,3.5.452,7,.435,10.5-.055,11.544-2.739,22.9-5.407,34.127-.344,1.447-.814,3.065-2.13,3.758a5.253,5.253,0,0,1-1.859.454,227.489,227.489,0,0,1-23,1.915q-4.5.069-9-.218a4.851,4.851,0,0,1-1.517-.264,4.278,4.278,0,0,1-1.654-1.4c-4.162-5.244-4.408-12.5-4.381-19.19q.1-24.554,1.755-49.068c.091-1.349.111-2.987-.861-4.048A50.678,50.678,0,0,0,822.472,324.287Z" transform="translate(-348.774 -156.086)" fill="#fff"/>
    <path id="Path_233" data-name="Path 233" d="M806.524,295.932c-.689,1.247-5.767,4.343-6.747,5.376-5.478,5.774-15.475,5.557-20.484,11.741a19.269,19.269,0,0,0-3.352,7.627c-.953,3.844-1.461,8.036.135,11.661,1.535,3.488,4.767,5.9,6.962,9.014,2.409,3.421,3.493,7.574,4.531,11.627.767,2.993,1.539,6.06,1.241,9.134-.339,3.5-2.031,6.7-3.03,10.065s-1.171,7.378,1.138,10.025c1.7,1.944,4.358,2.715,6.9,3.149a79.3,79.3,0,0,0,9.837.856c2.908.128,6.113.153,8.349-1.711a8.394,8.394,0,0,0,2.63-6.152,39.715,39.715,0,0,0-.677-6.846c-.31-2.361-.429-4.742-.529-7.121q-.671-16.01-.183-32.041a27.261,27.261,0,0,0-.324-6.649c-.624-2.859-2.169-5.414-3.458-8.041a30.427,30.427,0,0,1-3.374-16.074C806.481,295.853,808.976,291.5,806.524,295.932Z" transform="translate(-337.146 -151.278)" fill="#fff"/>
    <path id="Path_234" data-name="Path 234" d="M856.868,295.552c1.049,1.078,4.614,1.434,5.949,2.128a20.838,20.838,0,0,0,3.91,1.354,50.766,50.766,0,0,1,13.737,6.3,8.336,8.336,0,0,1,2.3,1.984,9.094,9.094,0,0,1,1.271,3.589,40.726,40.726,0,0,1,1.163,9.812,40.731,40.731,0,0,1-2.257,10.239l-3.91,12.5c-2.919,9.331-5.856,18.753-6.677,28.5a67.025,67.025,0,0,0,.6,16.184,1.919,1.919,0,0,1-.2,1.568,1.544,1.544,0,0,1-.958.441c-1.887.3-3.714-.667-5.423-1.519a60.056,60.056,0,0,0-16.556-5.417,38.488,38.488,0,0,0,5.142-10.6,64.15,64.15,0,0,0,1.554-7.29l1.819-10.52a103.359,103.359,0,0,0,1.56-11.633,14.564,14.564,0,0,0-.253-4.382,21.26,21.26,0,0,0-1.661-3.952,33.768,33.768,0,0,1-3.225-20.169c.516-2.983,1.519-5.971,1.1-8.97-.4-2.883.016-5.124-.724-7.977C852.095,286.006,854.894,293.523,856.868,295.552Z" transform="translate(-358.852 -150.464)" fill="#fff"/>
    <path id="Path_235" data-name="Path 235" d="M778.971,331.283c-1.367,2.836-3.651,5.252-4.429,8.3a18.133,18.133,0,0,0-.386,4.339,20.611,20.611,0,0,0,.644,6.525c.434,1.345,1.14,2.586,1.649,3.9a14.155,14.155,0,0,1,.927,5.785c-.137,2.732-1.065,5.383-1.138,8.117-.114,4.3,1.875,8.342,3.815,12.18a8.954,8.954,0,0,1,13.016-4.261,2.669,2.669,0,0,0,.587-1.946q.215-7.482.415-14.965c.21-7.715.41-15.534-1.365-23.045a21.74,21.74,0,0,0-4.334-9.4c-1.2-1.385-5.289-5.033-7.265-3.482-.888.7-.681,2.6-.822,3.559a15.1,15.1,0,0,1-1.314,4.386Z" transform="translate(-336.876 -159.653)" fill="#fff"/>
    <path id="Path_236" data-name="Path 236" d="M890.515,320.2a20.871,20.871,0,0,1,.7,6.277q.039,6.468-.171,12.935a24.116,24.116,0,0,1-.84,6.549c-.441,1.388-1.122,2.689-1.578,4.072-1.366,4.145-.62,8.641-.5,13a14.777,14.777,0,0,1-.358,4.206c-.721,2.7-2.658,4.89-4.01,7.341-1.284,2.328-2.059,4.937-3.593,7.108s-4.189,3.892-6.762,3.225c-1.95-.505-3.335-2.231-4.294-4a19.632,19.632,0,0,1-2.03-12.734c.962-5.3,4.072-9.993,5.194-15.256,1.54-7.228-.8-14.687-.731-22.077a10.672,10.672,0,0,1,.465-3.422,14.323,14.323,0,0,1,3.02-4.39,55.426,55.426,0,0,0,4.058-5.326c.836-1.246,1.971-4.452,3.453-4.719C885.842,312.4,889.7,317.648,890.515,320.2Z" transform="translate(-363.772 -156.746)" fill="#fff"/>
    <path id="Path_237" data-name="Path 237" d="M749.079,424.441a20.129,20.129,0,0,0-5.6-.6A13.975,13.975,0,0,0,730.5,440.32a23.473,23.473,0,0,0,2.219,6.063c1.485,3.014,3.266,6.02,6.015,7.951a23.426,23.426,0,0,0,5.308,2.527l14.479,5.454c2.13.8,4.26,1.6,6.411,2.349a125.406,125.406,0,0,0,33.488,6.657,36.259,36.259,0,0,0,10.4-.527,3.385,3.385,0,0,0,2.129-1.15,3.647,3.647,0,0,0,.476-1.571l.891-6.237a5.224,5.224,0,0,0-.076-2.629,5.036,5.036,0,0,0-2.407-2.268c-9.519-5.467-20.633-8.483-28.645-15.987-1.886-1.766-3.465-4.567-5.756-5.766-2.6-1.361-5.659-2.137-8.345-3.391C761.216,429.054,755.443,425.9,749.079,424.441Z" transform="translate(-324.149 -188.935)" fill="#2f2e41"/>
    <path id="Path_238" data-name="Path 238" d="M774.485,435.952c5.118,1.6,26.724,12.714,30.428,16.593-.5.179-17.339-9.26-17.845-9.412a101.764,101.764,0,0,1-13.576-4.785c-.878-.406-5.7-2.314-5.483-3.421C768.255,433.677,773.577,435.666,774.485,435.952Z" transform="translate(-335.101 -192.037)" opacity="0.1"/>
    <path id="Path_239" data-name="Path 239" d="M858.515,489.89a1.2,1.2,0,0,0,.811-.239,1.253,1.253,0,0,0,.254-.934l-.024-8.5a26.119,26.119,0,0,0-7.86-1.9l-12.518-1.673c.288.038-1.957,5.391-1.613,6.106.607,1.26,5.243,2.376,6.551,2.971C848.665,487.795,853.392,490.068,858.515,489.89Z" transform="translate(-355.284 -204.268)" fill="#a0616a"/>
    <path id="Path_240" data-name="Path 240" d="M808.6,479.143c-2.363.376-5,.709-6.532,2.549-1.941,2.333-1.115,5.811-.189,8.7a2.821,2.821,0,0,0,3.291,2.354c2.155.136,4.449.243,6.332-.814a27.754,27.754,0,0,0,2.46-1.828,15.772,15.772,0,0,1,4.523-2.068,45.734,45.734,0,0,1,9.079-1.871,14.121,14.121,0,0,0,3.576-.63,3.963,3.963,0,0,0,2.519-2.445c.436-1.544-.461-3.119-1.322-4.473a17.846,17.846,0,0,0-3.807-4.705c-2.332-1.812-3.486-.421-5.836.738a49.513,49.513,0,0,1-14.095,4.492Z" transform="translate(-344.648 -203.219)" fill="#a0616a"/>
    <path id="Path_241" data-name="Path 241" d="M791.376,482.379l-15.007-4.436a19.862,19.862,0,0,0-5.585-1.082,6.7,6.7,0,0,0-5.129,2.074,9.989,9.989,0,0,0-1.787,5l-.62,3.788a19.019,19.019,0,0,0-.348,5.817,6.432,6.432,0,0,0,2.981,4.792c2.077,1.133,4.622.58,6.94.106a75.547,75.547,0,0,1,14.221-1.525,11.415,11.415,0,0,0,5.268-.84,6.577,6.577,0,0,0,3.21-5.241C795.816,487.6,794.737,483.372,791.376,482.379Z" transform="translate(-333.595 -204.327)" fill="#2f2e41"/>
    <path id="Path_242" data-name="Path 242" d="M872.808,477.953c1.945-.341,3.662-1.447,5.526-2.1a24.581,24.581,0,0,1,8.247-.908,5.294,5.294,0,0,1,2.957.592c1.224.815,1.538,2.447,1.747,3.9l1.256,8.786a13.785,13.785,0,0,1,.1,4.978,4.683,4.683,0,0,1-3.094,3.618c-1.962.51-3.886-.743-5.739-1.567-4.631-2.058-10.014-1.532-14.843-3.07a3.327,3.327,0,0,1-2.221-1.589,3.614,3.614,0,0,1-.173-1.518c.083-2.824-.513-6.681.337-9.38C867.676,477.271,870.637,477.953,872.808,477.953Z" transform="translate(-363.678 -203.766)" fill="#2f2e41"/>
    <path id="Path_243" data-name="Path 243" d="M894.572,419.386a26.06,26.06,0,0,1,9.18-.627,11.521,11.521,0,0,1,6.775,2.652c2.181,2.068,2.882,5.265,2.94,8.27a25.836,25.836,0,0,1-5.616,16.5,14.973,14.973,0,0,1-3.211,3.091,21.132,21.132,0,0,1-4.177,2.013l-32.425,12.789c-8.53,3.365-17.091,6.739-25.988,8.957a2.025,2.025,0,0,1-2.725-.988,67.176,67.176,0,0,1-7.107-13,.876.876,0,0,1,.387-1.381l22.934-13.177a23.19,23.19,0,0,0,4.668-3.216,11.587,11.587,0,0,0,2.4-3.336c.475-.993.52-3.336,1.127-4.07.594-.719,2.628-.776,3.568-1.059a32.37,32.37,0,0,0,3.884-1.468c5.13-2.3,9.7-5.63,14.617-8.317A37.5,37.5,0,0,1,894.572,419.386Z" transform="translate(-353.685 -187.417)" fill="#2f2e41"/>
    <path id="Path_244" data-name="Path 244" d="M886.781,432.545c-3.94,2.959-9.042,5.68-12.947,8.717-1.333,1.037-23.551,13.528-23.865,15.187,3.643.614,26.851-15.622,30.172-17.242a53.628,53.628,0,0,0,9.181-6.173c.743-.578,3.893-2.315,1.76-2.961C889.879,429.71,887.668,431.954,886.781,432.545Z" transform="translate(-358.895 -190.735)" opacity="0.1"/>
    <path id="Path_245" data-name="Path 245" d="M847.169,297.693H812.581a5.3,5.3,0,0,0-5.3,5.3v1.94h-.376v4.339h.376v3.037h-.376v2.6h.376v32.016a5.3,5.3,0,0,0,5.3,5.3h34.588a5.3,5.3,0,0,0,5.3-5.3V302.991a5.3,5.3,0,0,0-5.3-5.3Z" transform="translate(-346.394 -152.318)" fill="#d0cde1"/>
    <path id="Path_246" data-name="Path 246" d="M694.213,143.142l-17.543-9.189-24.226,3.759-5.012,22.137,12.477-.48,3.485-8.133v8l5.757-.221,3.341-12.949,2.089,13.784,20.467-.418Z" transform="translate(-187.941 -38.693)" fill="#2f2e41"/>
    <path id="Path_247" data-name="Path 247" d="M786,392.576a9.116,9.116,0,0,0,3.275,3.258,6.4,6.4,0,0,0,5.629-.151,9.908,9.908,0,0,0,4.062-4.073c1.906-3.367,2.3-7.4,2.063-11.257s-1.062-7.664-1.427-11.516c-.265-2.8-.287-5.617-.308-8.429a2.8,2.8,0,0,1,.354-1.7,3.347,3.347,0,0,1,1.88-.939c3.848-1.143,6.4-4.75,8.233-8.322,1.223-2.385,2.286-4.993,2.05-7.662s-2.155-5.36-4.821-5.632c-2.2-.225-4.228,1.172-5.814,2.711a24.93,24.93,0,0,0-7.3,14.589c-.348,2.715-.248,5.5-.987,8.139-1.577,5.627-6.509,9.077-8.968,14.141C781.213,381.3,782.708,387.639,786,392.576Z" transform="translate(-339.315 -163.474)" fill="#a0616a"/>
    <path id="Path_248" data-name="Path 248" d="M880.315,364.214a10.635,10.635,0,0,1-5.964,5.73,8.237,8.237,0,0,1-5.184.318,5.749,5.749,0,0,1-3.8-3.4,9.151,9.151,0,0,1-.428-2.552,26.291,26.291,0,0,1,1.227-11.249c.532-1.367,1.248-2.663,1.668-4.069a20.409,20.409,0,0,0,.628-4.966l.453-10.354a6.738,6.738,0,0,0-.154-2.245c-.452-1.5-1.852-2.472-3.137-3.365-3.1-2.158-6.169-4.676-7.672-8.143a5.711,5.711,0,0,1-.53-3.373c.424-2.056,2.5-3.387,4.55-3.835a10.177,10.177,0,0,1,12.2,8.2c.2,1.168.2,2.362.319,3.542.252,2.5,1.047,4.916,1.544,7.382,1.224,6.075.59,12.354,1.8,18.427C878.851,355.344,882.668,358.658,880.315,364.214Z" transform="translate(-361.041 -156.611)" fill="#a0616a"/>
    <circle id="Ellipse_19" data-name="Ellipse 19" cx="4.339" cy="4.339" r="4.339" transform="translate(479.604 159.989)" fill="#d9435f"/>
    <circle id="Ellipse_20" data-name="Ellipse 20" cx="12.8" cy="12.8" r="12.8" transform="translate(0.002 294.675)" fill="#2f2e41"/>
    <path id="Path_249" data-name="Path 249" d="M75.479,483.947l-6.447-6.267L56.086,481.7l1.243,14.99,26.618-1.236-8.177-11.111Z" transform="translate(-16.281 -138.473)" fill="#fbbebe"/>
    <circle id="Ellipse_21" data-name="Ellipse 21" cx="20.694" cy="20.694" r="20.694" transform="translate(24.405 303.958)" fill="#fbbebe"/>
    <path id="Path_250" data-name="Path 250" d="M397.92,617.061s25.422,43.689,31.473,50.248a109.835,109.835,0,0,0,9.18,9.149s-2.845,9.435-7.375,9.1a21.318,21.318,0,0,1-7.473-1.842s-2.022-5.241-5.549-7.54-32.34-30.645-31.667-39.705S397.92,617.061,397.92,617.061Z" transform="translate(-224.355 -245.027)" fill="#2f2e41"/>
    <path id="Path_251" data-name="Path 251" d="M275.023,693.436s27.106,21.039,63.944,1.27l3.175-2.336s-5.358,12.052-5.855,15.32c-.576,3.789-14.525,25.983-16.8,27.046s-2.778,2.044-2.778,2.044l9.659,10.632,3.571-2.628s13.926-19.731,18-23.34,23.479-40.831,23.479-40.831,7.42-14.025-11.1-15.08-27.038,3.992-27.038,3.992l-32.863,5.22Z" transform="translate(-191.995 -259.056)" fill="#2f2e41"/>
    <path id="Path_252" data-name="Path 252" d="M452.331,697.841l13.71,9.486s17.491,5.48,6.717,9.127-39.167,4.966-39.812-.066,1.12-12.951,2.536-12.518S446.731,706.856,452.331,697.841Z" transform="translate(-237.799 -268.477)" fill="#2f2e41"/>
    <path id="Path_253" data-name="Path 253" d="M344.683,769.925l2.538,13.935s7.216,13.8-1.448,9.518S319.26,772.832,321.9,769.423s8.453-7.108,9.044-6S335.9,771.976,344.683,769.925Z" transform="translate(-205.525 -287.457)" fill="#2f2e41"/>
    <path id="Path_254" data-name="Path 254" d="M283.836,652.714S265.41,674.226,254.223,669s-56.954-65.753-51.728-76.94,6.978-8.806,6.978-8.806L233.1,585.44l-6.8-10.9a4.6,4.6,0,0,1,6.2.943c3.025,3.279,15.17,11.47,19.4,23.038s16.653,10.991,16.653,10.991Z" transform="translate(-170.821 -232.449)" fill="#fff"/>
    <path id="Path_255" data-name="Path 255" d="M239.317,509.151l-31.941,33.905-28.613-50.517,27.2-32.865Z" transform="translate(-51.892 -133.246)" fill="#3f3d56"/>
    <path id="Path_256" data-name="Path 256" d="M238.2,509.933l-28.848,29.794-26.142-45.913,23.974-30.183Z" transform="translate(-53.182 -134.395)" fill="#fff"/>
    <path id="Path_257" data-name="Path 257" d="M198.664,575.336l1.565,1.3-1,1.962-44.663,13.293-.422-1.53,2.032-2.1Z" transform="translate(-44.744 -166.821)" fill="#b3b3b3"/>
    <path id="Path_258" data-name="Path 258" d="M189.19,556.207l-46.25,14.46-28.193-53.273,45.434-11.413Z" transform="translate(-33.309 -146.688)" fill="#d0cde1"/>
    <path id="Path_259" data-name="Path 259" d="M204.914,551.091l-1.984,1.46-22.022-38.238,2.276-1.063Z" transform="translate(-52.515 -148.798)" fill="#3f3d56"/>
    <path id="Path_260" data-name="Path 260" d="M191.231,554.044l-19.565,5.834-22.21-39.324,19.355-4.456Z" transform="translate(-43.385 -149.626)" fill="#3f3d56"/>
    <path id="Path_261" data-name="Path 261" d="M287.675,620.93l4.051-1.146s22.59-2.554,22.92,4.544-25.952,3.8-25.952,3.8l-3.5-4.762Z" transform="translate(-194.946 -245.688)" fill="#fbbebe"/>
    <path id="Path_262" data-name="Path 262" d="M314.546,659.814l5.638-2.314s17.019-7.631,12.137-12.6-19.939,3.662-19.939,3.662l-2.883,2.733Z" transform="translate(-202.003 -252.66)" fill="#fbbebe"/>
    <path id="Path_263" data-name="Path 263" d="M278.775,640.169s9.18,9.149,7.091,11.3-36.343,30.416-44.835,21.372-49.862-54.455-33.764-58.349,20.352,5.21,20.352,5.21L248.87,656.06Z" transform="translate(-171.257 -244)" fill="#fff"/>
    <path id="Path_264" data-name="Path 264" d="M112.307,518.781l15.08,5.113-.246,10.887-15.949-1.721Z" transform="translate(-32.277 -150.404)" fill="#fff"/>
    <path id="Path_265" data-name="Path 265" d="M117.676,558.1l-16.247,9.51L82.865,539.06l17.919,23.518Z" transform="translate(-24.054 -156.291)" opacity="0.2"/>
    <circle id="Ellipse_22" data-name="Ellipse 22" cx="24.635" cy="24.635" r="24.635" transform="translate(11.38 294.017)" fill="#2f2e41"/>
    <path id="Path_266" data-name="Path 266" d="M231.245,518.393l-17.25-25.234,7.312-9.052,17.924,25.961Z" transform="translate(-62.12 -140.339)" fill="#5e66f2"/>
    <path id="Path_267" data-name="Path 267" d="M226.874,530.456l-26.261-38.178,1.3-1.565,26.138,38.268Z" transform="translate(-58.235 -142.257)" fill="#e6e6e6"/>
    <path id="Path_268" data-name="Path 268" d="M222.106,535.689l-26.261-38.178,1.3-1.565,26.138,38.268Z" transform="translate(-56.851 -143.776)" fill="#e6e6e6"/>
    <path id="Path_269" data-name="Path 269" d="M218.044,539.54l-26.261-38.178,1.3-1.565,26.138,38.268Z" transform="translate(-55.672 -144.893)" fill="#e6e6e6"/>
    <path id="Path_270" data-name="Path 270" d="M66.117,425.544h7.621a14.549,14.549,0,0,1,14.549,14.549H66.117Z" transform="translate(-19.192 -123.338)" fill="#2f2e41"/>
    <path id="Path_271" data-name="Path 271" d="M368.909,505.584l-1.382-.1c-.054.718-.092,1.441-.138,2.162l-6.2-.208,6.5,12.19L375,507.9l-6.224-.208C368.82,506.987,368.857,506.284,368.909,505.584Z" transform="translate(-217.008 -212.637)" fill="#3f3d56"/>
    <path id="Path_272" data-name="Path 272" d="M423.317,362.979l1.1.841c1.652-2.164,3.378-4.324,5.129-6.421l-1.064-.888C426.719,358.624,424.981,360.8,423.317,362.979Z" transform="translate(-235.043 -169.393)" fill="#3f3d56"/>
    <path id="Path_273" data-name="Path 273" d="M438.272,345.279l1.023.934c1.838-2.013,3.747-4.012,5.672-5.943l-.981-.978C442.046,341.237,440.124,343.251,438.272,345.279Z" transform="translate(-239.384 -164.394)" fill="#3f3d56"/>
    <path id="Path_274" data-name="Path 274" d="M454.736,328.986l.937,1.021c2.01-1.846,4.086-3.669,6.169-5.42l-.891-1.061C458.852,325.29,456.762,327.126,454.736,328.986Z" transform="translate(-244.163 -159.817)" fill="#3f3d56"/>
    <path id="Path_275" data-name="Path 275" d="M409.991,381.956l1.171.74c1.456-2.3,2.986-4.609,4.545-6.851l-1.137-.792C413,377.312,411.458,379.634,409.991,381.956Z" transform="translate(-231.175 -174.775)" fill="#3f3d56"/>
    <path id="Path_276" data-name="Path 276" d="M472.579,314.227l.844,1.1c2.165-1.662,4.392-3.3,6.62-4.854l-.794-1.135C477,310.906,474.76,312.552,472.579,314.227Z" transform="translate(-249.343 -155.698)" fill="#3f3d56"/>
    <path id="Path_277" data-name="Path 277" d="M398.406,402.064l1.232.633c1.248-2.428,2.568-4.86,3.923-7.229l-1.2-.688C400.993,397.167,399.664,399.617,398.406,402.064Z" transform="translate(-227.812 -180.502)" fill="#3f3d56"/>
    <path id="Path_278" data-name="Path 278" d="M378.255,459.856l-1.342-.345c-.685,2.659-1.319,5.37-1.884,8.058l1.356.286C376.947,465.186,377.575,462.494,378.255,459.856Z" transform="translate(-221.025 -199.292)" fill="#3f3d56"/>
    <path id="Path_279" data-name="Path 279" d="M491.665,301.116l.744,1.169c2.3-1.461,4.658-2.891,7.018-4.25l-.691-1.2C496.357,298.2,493.979,299.644,491.665,301.116Z" transform="translate(-254.884 -152.069)" fill="#3f3d56"/>
    <path id="Path_280" data-name="Path 280" d="M373.774,482.551l-1.367-.225c-.445,2.7-.836,5.461-1.161,8.193l1.376.164C372.945,487.973,373.332,485.237,373.774,482.551Z" transform="translate(-219.927 -205.915)" fill="#3f3d56"/>
    <path id="Path_281" data-name="Path 281" d="M388.661,423.154l1.283.522c1.027-2.529,2.126-5.07,3.266-7.553l-1.259-.578C390.8,418.046,389.7,420.606,388.661,423.154Z" transform="translate(-224.983 -186.529)" fill="#3f3d56"/>
    <path id="Path_282" data-name="Path 282" d="M380.841,445.064l1.325.4c.8-2.615,1.667-5.245,2.581-7.818l-1.306-.463C382.521,439.779,381.646,442.43,380.841,445.064Z" transform="translate(-222.713 -192.812)" fill="#3f3d56"/>
    <path id="Path_283" data-name="Path 283" d="M623.713,263.341c2.716-.094,5.482-.132,8.218-.106l.012-1.386c-2.755-.026-5.542.012-8.278.107Z" transform="translate(-293.202 -141.911)" fill="#3f3d56"/>
    <path id="Path_284" data-name="Path 284" d="M511.845,289.762l.637,1.23c2.42-1.254,4.9-2.468,7.363-3.611l-.583-1.257C516.778,287.274,514.282,288.5,511.845,289.762Z" transform="translate(-260.742 -148.96)" fill="#3f3d56"/>
    <path id="Path_285" data-name="Path 285" d="M669.93,265.827c2.7.383,5.431.83,8.108,1.331l.254-1.362c-2.7-.5-5.445-.956-8.169-1.342Z" transform="translate(-306.632 -142.67)" fill="#3f3d56"/>
    <path id="Path_286" data-name="Path 286" d="M692.685,270.093c2.654.62,5.331,1.309,7.958,2.047l.375-1.334c-2.646-.744-5.344-1.437-8.017-2.062Z" transform="translate(-313.237 -143.915)" fill="#3f3d56"/>
    <path id="Path_287" data-name="Path 287" d="M714.969,276.372c2.587.853,5.193,1.778,7.743,2.747l.493-1.295c-2.57-.977-5.195-1.908-7.8-2.768Z" transform="translate(-319.706 -145.747)" fill="#3f3d56"/>
    <path id="Path_288" data-name="Path 288" d="M646.886,263.593c2.729.143,5.486.349,8.2.611l.134-1.379c-2.73-.264-5.508-.471-8.256-.615Z" transform="translate(-299.942 -142.018)" fill="#3f3d56"/>
    <path id="Path_289" data-name="Path 289" d="M600.423,263.49l.169,1.375c2.7-.332,5.45-.609,8.172-.823l-.108-1.382C605.913,262.876,603.143,263.155,600.423,263.49Z" transform="translate(-286.455 -142.149)" fill="#3f3d56"/>
    <path id="Path_290" data-name="Path 290" d="M554.878,272.667l.41,1.323c2.6-.806,5.261-1.565,7.9-2.254l-.351-1.34C560.179,271.091,557.5,271.854,554.878,272.667Z" transform="translate(-273.234 -144.394)" fill="#3f3d56"/>
    <path id="Path_291" data-name="Path 291" d="M532.961,280.256l.526,1.282c2.519-1.034,5.093-2.023,7.649-2.942l-.468-1.3C538.091,278.218,535.5,279.215,532.961,280.256Z" transform="translate(-266.871 -146.396)" fill="#3f3d56"/>
    <path id="Path_292" data-name="Path 292" d="M577.434,267.062l.29,1.355c2.662-.571,5.376-1.09,8.067-1.543l-.23-1.367C582.851,265.965,580.115,266.487,577.434,267.062Z" transform="translate(-279.781 -142.975)" fill="#3f3d56"/>
    <path id="Path_293" data-name="Path 293" d="M749.373,288.173l-7.743-11.443-2.723,5.6c-.659-.294-1.314-.595-1.973-.88l-.551,1.272c.643.278,1.279.57,1.918.855l-2.71,5.578Z" transform="translate(-325.693 -146.233)" fill="#3f3d56"/>
  </g>
</svg>
