<svg xmlns="http://www.w3.org/2000/svg" width="100%" viewBox="0 0 22.5 31.493">
  <path id="Icon_ionic-md-keypad" data-name="Icon ionic-md-keypad" d="M18,28.02a2.862,2.862,0,1,0,2.848,2.862A2.861,2.861,0,0,0,18,28.02ZM9.6,2.25a2.862,2.862,0,1,0,2.848,2.862A2.861,2.861,0,0,0,9.6,2.25Zm0,8.592A2.862,2.862,0,1,0,12.445,13.7,2.861,2.861,0,0,0,9.6,10.842Zm0,8.592A2.862,2.862,0,1,0,12.445,22.3,2.861,2.861,0,0,0,9.6,19.434ZM26.4,7.98a2.865,2.865,0,1,0-2.848-2.869A2.861,2.861,0,0,0,26.4,7.98ZM18,19.434A2.862,2.862,0,1,0,20.848,22.3,2.861,2.861,0,0,0,18,19.434Zm8.4,0A2.862,2.862,0,1,0,29.25,22.3,2.861,2.861,0,0,0,26.4,19.434Zm0-8.592A2.862,2.862,0,1,0,29.25,13.7,2.861,2.861,0,0,0,26.4,10.842Zm-8.4,0A2.862,2.862,0,1,0,20.848,13.7,2.861,2.861,0,0,0,18,10.842ZM18,2.25a2.862,2.862,0,1,0,2.848,2.862A2.861,2.861,0,0,0,18,2.25Z" transform="translate(-6.75 -2.25)" fill="#fafafa"/>
</svg>
