<svg xmlns="http://www.w3.org/2000/svg" width="15.409" height="17.452" viewBox="0 0 15.409 17.452">
  <path id="Icon_awesome-bell" data-name="Icon awesome-bell" d="M7.413,16.945A2.118,2.118,0,0,0,9.53,14.826H5.3A2.118,2.118,0,0,0,7.413,16.945Zm7.128-4.955c-.639-.687-1.836-1.721-1.836-5.106A5.226,5.226,0,0,0,8.472,1.749v-.69a1.058,1.058,0,1,0-2.117,0v.69A5.226,5.226,0,0,0,2.121,6.884c0,3.386-1.2,4.419-1.836,5.106A1.034,1.034,0,0,0,0,12.708a1.06,1.06,0,0,0,1.062,1.059h12.7a1.06,1.06,0,0,0,1.062-1.059,1.033,1.033,0,0,0-.285-.718Z" transform="matrix(0.999, -0.035, 0.035, 0.999, 0, 0.517)" fill="#8c63d6"/>
</svg>
